:SAMPLES-PER-SECOND 30
:FULLY-SPECIFIED
:DEGREES
342
root  -6.73542 23.7107 3.07013 -172.08 85.4981 174.085
RightUpLeg  -52.4413 22.7443 -31.0182
RightLeg  79.4294 2.36177 8.86824
RightFoot  -34.3485 -1.33562 -3.94226
RightToes  -55.7585 -0.354952 -0.38582
Spine  24.7027 4.31933 1.44816
Spine1  41.5117 12.0254 1.85137
HEad  3.9705 -9.96126 3.30216
LeftShoulder1  0 -2.42657e-020 -4.95415e-022
LeftArm  -21.1149 -37.3443 -82.4644
LeftForeArm  21.0643 -44.7587 -10.0796
LeftHand  -0.0937041 -8.51493 0.889445
RightShoulder  0 2.42657e-020 1.07489e-018
RightArm  -53.0399 38.4597 56.5282
RightForeArm  29.4677 23.3235 4.35341
RightHand  -1.15421 23.3659 -5.20898
LeftUpLeg  -78.5983 -1.00837 14.8009
LeftLeg  69.0576 -7.00164 -14.9077
LeftFoot  6.65689 0.157982 -2.71594
LeftToes  -44.9417 2.34596e-006 -6.06653e-008
343
root  -7.61511 24.4161 4.40403 -171.832 77.7269 174.051
RightUpLeg  -47.9594 16.6741 -25.5808
RightLeg  76.6339 1.356 4.13502
RightFoot  -36.3634 -0.655235 -1.61736
RightToes  -48.219 -0.28724 -0.356691
Spine  23.7566 3.51303 2.32434
Spine1  40.9124 11.3746 1.20055
HEad  1.88955 -8.55257 4.54035
LeftShoulder1  0 -2.42657e-020 -4.95415e-022
LeftArm  -22.9814 -31.1183 -81.1346
LeftForeArm  22.2911 -47.9583 -11.2938
LeftHand  -0.0928986 -8.75923 0.843632
RightShoulder  0 2.42657e-020 1.07489e-018
RightArm  -55.593 34.577 59.7634
RightForeArm  33.4994 30.1975 5.88237
RightHand  -1.91741 24.4891 -8.45061
LeftUpLeg  -77.228 -5.87931 15.8555
LeftLeg  59.1923 -10.4183 -14.7565
LeftFoot  13.485 0.549648 -4.64666
LeftToes  -44.2597 2.34596e-006 -6.06653e-008
344
root  -8.53571 25.2113 5.75401 -169.428 70.2378 175.603
RightUpLeg  -46.5067 12.6925 -22.2623
RightLeg  74.6109 0.84933 2.21784
RightFoot  -34.0264 -0.280555 -0.539343
RightToes  -47.2661 -0.278972 -0.352382
Spine  22.3375 2.7048 2.81171
Spine1  39.3479 9.88365 0.728695
HEad  0.963129 -7.0089 6.13156
LeftShoulder1  0 -2.42657e-020 -4.95415e-022
LeftArm  -23.9362 -25.0737 -78.9268
LeftForeArm  21.6889 -49.0451 -11.7419
LeftHand  -0.0846099 -8.81042 0.728886
RightShoulder  0 2.42657e-020 1.07489e-018
RightArm  -56.47 30.0852 63.4974
RightForeArm  38.3167 38.8786 8.16991
RightHand  -2.82913 25.0397 -12.324
LeftUpLeg  -76.4327 -8.64326 13.947
LeftLeg  50.5578 -10.3015 -10.8172
LeftFoot  20.8241 0.970548 -5.27823
LeftToes  -30.559 2.34596e-006 -6.06653e-008
345
root  -9.40603 25.8848 6.91858 -167.702 63.6225 177.022
RightUpLeg  -45.7208 7.19258 -18.8172
RightLeg  73.3064 0.408436 0.884466
RightFoot  -30.9221 -0.0383118 0.23904
RightToes  -44.3158 -0.253845 -0.338181
Spine  21.251 1.82335 2.86237
Spine1  37.8483 7.3904 1.16055
HEad  1.11105 -5.48162 7.41983
LeftShoulder1  0 -2.42657e-020 -4.95415e-022
LeftArm  -24.2685 -20.7609 -77.2704
LeftForeArm  20.5438 -48.1417 -11.3674
LeftHand  0.00788639 -7.8939 -0.484671
RightShoulder  0 2.42657e-020 1.07489e-018
RightArm  -57.7862 25.7821 65.4052
RightForeArm  32.8579 47.3892 11.0706
RightHand  -1.12432 24.8925 -4.72205
LeftUpLeg  -75.6665 -9.18314 8.01715
LeftLeg  52.3714 -9.06107 -10.1673
LeftFoot  19.5602 0.733647 -4.2543
LeftToes  -25.343 2.34596e-006 -6.06653e-008
346
root  -10.1808 26.308 7.96038 -164.778 57.7962 -179.777
RightUpLeg  -45.1643 1.71266 -14.9408
RightLeg  71.8454 0.573267 1.23718
RightFoot  -28.75 -0.0837351 0.0508318
RightToes  -45.3142 -0.262266 -0.343131
Spine  20.6985 1.23271 3.25507
Spine1  37.1152 5.37511 2.19345
HEad  1.77106 -3.15682 6.81088
LeftShoulder1  0 -2.42657e-020 -4.95415e-022
LeftArm  -24.5201 -18.8123 -77.7012
LeftForeArm  19.3517 -46.7592 -10.8202
LeftHand  0.00350709 -7.37284 -0.424782
RightShoulder  0 2.42657e-020 1.07489e-018
RightArm  -55.3793 24.2792 64.5812
RightForeArm  32.2816 52.0423 13.0996
RightHand  -0.634171 24.2824 -2.57783
LeftUpLeg  -75.0312 -8.6061 3.01372
LeftLeg  62.0649 -4.28105 -6.9252
LeftFoot  10.3695 0.0928491 -1.02324
LeftToes  -26.9157 2.34596e-006 -6.06653e-008
347
root  -10.8677 26.6338 8.93058 -161.364 53.2118 -176.244
RightUpLeg  -45.579 -3.00402 -10.9932
RightLeg  70.1871 0.896348 1.88946
RightFoot  -26.2517 -0.144618 -0.242645
RightToes  -46.9181 -0.27597 -0.350775
Spine  20.1282 0.877518 3.49081
Spine1  36.1723 4.10338 2.53055
HEad  2.83834 0.680447 4.76272
LeftShoulder1  0 -2.42657e-020 -4.95415e-022
LeftArm  -25.3869 -17.3387 -78.5551
LeftForeArm  17.4714 -46.1198 -10.5762
LeftHand  0.0119887 -6.6834 -0.575863
RightShoulder  0 2.42657e-020 1.07489e-018
RightArm  -51.8798 24.1631 66.2163
RightForeArm  31.4683 55.26 14.7816
RightHand  0.0179383 24.305 0.453427
LeftUpLeg  -73.9917 -6.2162 0.391381
LeftLeg  73.9001 0.325328 0.885179
LeftFoot  -0.181728 0.000668066 0.421239
LeftToes  -24.347 2.34596e-006 -6.06653e-008
